<svg width="74" height="58" viewBox="0 0 74 58" fill="none" xmlns="http://www.w3.org/2000/svg">
<g clip-path="url(#clip0_465_701)">
<path d="M6.18182 10.5795V8.27273H34.7188V10.5795H21.6932V49H19.2074V10.5795H6.18182ZM37.4482 49H34.8232L49.5192 8.27273H52.3828L67.0788 49H64.4538L51.0504 11.4744H50.8516L37.4482 49ZM41.1669 33.6676H60.7351V35.9744H41.1669V33.6676Z" fill="black"/>
<line x1="6.5" y1="2" x2="6.5" y2="56" stroke="black" stroke-opacity="0.4" stroke-dasharray="2 2"/>
<line x1="72" y1="34.5" x2="1" y2="34.5" stroke="black" stroke-opacity="0.4" stroke-dasharray="2 2"/>
<line x1="72" y1="7.5" x2="1" y2="7.5" stroke="black" stroke-opacity="0.4" stroke-dasharray="2 2"/>
<line x1="72" y1="49.5" x2="1" y2="49.5" stroke="black" stroke-opacity="0.4" stroke-dasharray="2 2"/>
<line x1="35.5" y1="2" x2="35.5" y2="56" stroke="black" stroke-opacity="0.4" stroke-dasharray="2 2"/>
<line x1="66.5" y1="2" x2="66.5" y2="56" stroke="black" stroke-opacity="0.4" stroke-dasharray="2 2"/>
<line x1="53.4689" y1="1.17366" x2="33.4689" y2="55.1737" stroke="black" stroke-opacity="0.4" stroke-dasharray="2 2"/>
<line x1="23.4689" y1="1.17366" x2="3.46887" y2="55.1737" stroke="black" stroke-opacity="0.4" stroke-dasharray="2 2"/>
<line x1="48.4717" y1="0.834047" x2="67.4717" y2="54.834" stroke="black" stroke-opacity="0.4" stroke-dasharray="2 2"/>
<line x1="18.4717" y1="0.834047" x2="37.4717" y2="54.834" stroke="black" stroke-opacity="0.4" stroke-dasharray="2 2"/>
</g>
<defs>
<clipPath id="clip0_465_701">
<rect width="74" height="58" fill="white"/>
</clipPath>
</defs>
</svg>
